<mxfile host="app.diagrams.net" agent="Mozilla/5.0 (Windows NT 10.0; Win64; x64) AppleWebKit/537.36 (KHTML, like Gecko) Chrome/134.0.0.0 Safari/537.36 OPR/119.0.0.0" version="27.1.6">
  <diagram name="Seite-1" id="N2_hoCyTTuFq856vPsvx">
    <mxGraphModel dx="955" dy="1690" grid="1" gridSize="10" guides="1" tooltips="1" connect="1" arrows="1" fold="1" page="1" pageScale="1" pageWidth="827" pageHeight="1169" math="0" shadow="0">
      <root>
        <mxCell id="0" />
        <mxCell id="1" parent="0" />
        <mxCell id="lbHJMxycBbKmUDPUxu2Y-19" style="edgeStyle=orthogonalEdgeStyle;rounded=0;orthogonalLoop=1;jettySize=auto;html=1;exitX=0.5;exitY=1;exitDx=0;exitDy=0;entryX=0.5;entryY=0;entryDx=0;entryDy=0;" edge="1" parent="1" source="lbHJMxycBbKmUDPUxu2Y-8" target="lbHJMxycBbKmUDPUxu2Y-12">
          <mxGeometry relative="1" as="geometry" />
        </mxCell>
        <mxCell id="lbHJMxycBbKmUDPUxu2Y-8" value="&lt;font style=&quot;font-size: 10px;&quot;&gt;Layer 1&lt;/font&gt;&lt;div&gt;&lt;font style=&quot;font-size: 10px;&quot;&gt;1024&amp;nbsp;&lt;/font&gt;&lt;span style=&quot;font-size: 10px; background-color: transparent; color: light-dark(rgb(0, 0, 0), rgb(255, 255, 255));&quot;&gt;Neurons&lt;/span&gt;&lt;/div&gt;" style="rounded=0;whiteSpace=wrap;html=1;" vertex="1" parent="1">
          <mxGeometry x="40" width="120" height="40" as="geometry" />
        </mxCell>
        <mxCell id="lbHJMxycBbKmUDPUxu2Y-21" style="edgeStyle=orthogonalEdgeStyle;rounded=0;orthogonalLoop=1;jettySize=auto;html=1;exitX=0.5;exitY=1;exitDx=0;exitDy=0;entryX=0.5;entryY=0;entryDx=0;entryDy=0;" edge="1" parent="1" source="lbHJMxycBbKmUDPUxu2Y-9" target="lbHJMxycBbKmUDPUxu2Y-15">
          <mxGeometry relative="1" as="geometry" />
        </mxCell>
        <mxCell id="lbHJMxycBbKmUDPUxu2Y-9" value="&lt;font style=&quot;font-size: 10px;&quot;&gt;Layer 2&lt;/font&gt;&lt;div&gt;&lt;span style=&quot;font-size: 10px;&quot;&gt;128&amp;nbsp;&lt;/span&gt;&lt;span style=&quot;font-size: 10px; background-color: transparent; color: light-dark(rgb(0, 0, 0), rgb(255, 255, 255));&quot;&gt;Neurons&lt;/span&gt;&lt;/div&gt;" style="rounded=0;whiteSpace=wrap;html=1;" vertex="1" parent="1">
          <mxGeometry x="40" y="120" width="120" height="40" as="geometry" />
        </mxCell>
        <mxCell id="lbHJMxycBbKmUDPUxu2Y-23" style="edgeStyle=orthogonalEdgeStyle;rounded=0;orthogonalLoop=1;jettySize=auto;html=1;entryX=0.5;entryY=0;entryDx=0;entryDy=0;" edge="1" parent="1" source="lbHJMxycBbKmUDPUxu2Y-10" target="lbHJMxycBbKmUDPUxu2Y-17">
          <mxGeometry relative="1" as="geometry" />
        </mxCell>
        <mxCell id="lbHJMxycBbKmUDPUxu2Y-10" value="&lt;font style=&quot;font-size: 10px;&quot;&gt;Layer 3&lt;/font&gt;&lt;div&gt;&lt;span style=&quot;font-size: 10px;&quot;&gt;64&amp;nbsp;&lt;/span&gt;&lt;span style=&quot;font-size: 10px; background-color: transparent; color: light-dark(rgb(0, 0, 0), rgb(255, 255, 255));&quot;&gt;Neurons&lt;/span&gt;&lt;/div&gt;" style="rounded=0;whiteSpace=wrap;html=1;" vertex="1" parent="1">
          <mxGeometry x="40" y="240" width="120" height="40" as="geometry" />
        </mxCell>
        <mxCell id="lbHJMxycBbKmUDPUxu2Y-34" style="edgeStyle=orthogonalEdgeStyle;rounded=0;orthogonalLoop=1;jettySize=auto;html=1;exitX=0.5;exitY=1;exitDx=0;exitDy=0;" edge="1" parent="1" source="lbHJMxycBbKmUDPUxu2Y-11" target="lbHJMxycBbKmUDPUxu2Y-30">
          <mxGeometry relative="1" as="geometry" />
        </mxCell>
        <mxCell id="lbHJMxycBbKmUDPUxu2Y-11" value="&lt;font style=&quot;font-size: 10px;&quot;&gt;Layer 4&lt;/font&gt;&lt;div&gt;&lt;div&gt;&lt;span style=&quot;font-size: 10px;&quot;&gt;22&amp;nbsp;&lt;/span&gt;&lt;span style=&quot;font-size: 10px; background-color: transparent; color: light-dark(rgb(0, 0, 0), rgb(255, 255, 255));&quot;&gt;Neurons&lt;/span&gt;&lt;/div&gt;&lt;/div&gt;" style="rounded=0;whiteSpace=wrap;html=1;" vertex="1" parent="1">
          <mxGeometry x="40" y="360" width="120" height="40" as="geometry" />
        </mxCell>
        <mxCell id="lbHJMxycBbKmUDPUxu2Y-20" style="edgeStyle=orthogonalEdgeStyle;rounded=0;orthogonalLoop=1;jettySize=auto;html=1;" edge="1" parent="1" source="lbHJMxycBbKmUDPUxu2Y-12" target="lbHJMxycBbKmUDPUxu2Y-9">
          <mxGeometry relative="1" as="geometry" />
        </mxCell>
        <mxCell id="lbHJMxycBbKmUDPUxu2Y-25" value="&lt;font style=&quot;font-size: 8px;&quot;&gt;LeakyReLU&lt;/font&gt;" style="edgeLabel;html=1;align=center;verticalAlign=middle;resizable=0;points=[];" vertex="1" connectable="0" parent="lbHJMxycBbKmUDPUxu2Y-20">
          <mxGeometry x="-0.2051" relative="1" as="geometry">
            <mxPoint as="offset" />
          </mxGeometry>
        </mxCell>
        <mxCell id="lbHJMxycBbKmUDPUxu2Y-12" value="&lt;span style=&quot;font-size: 10px;&quot;&gt;BatchNorm 1D&lt;/span&gt;" style="rounded=0;whiteSpace=wrap;html=1;" vertex="1" parent="1">
          <mxGeometry x="40" y="60" width="120" height="20" as="geometry" />
        </mxCell>
        <mxCell id="lbHJMxycBbKmUDPUxu2Y-22" style="edgeStyle=orthogonalEdgeStyle;rounded=0;orthogonalLoop=1;jettySize=auto;html=1;" edge="1" parent="1" source="lbHJMxycBbKmUDPUxu2Y-15" target="lbHJMxycBbKmUDPUxu2Y-10">
          <mxGeometry relative="1" as="geometry" />
        </mxCell>
        <mxCell id="lbHJMxycBbKmUDPUxu2Y-26" value="&lt;span style=&quot;font-size: 8px;&quot;&gt;LeakyReLU&lt;/span&gt;" style="edgeLabel;html=1;align=center;verticalAlign=middle;resizable=0;points=[];" vertex="1" connectable="0" parent="lbHJMxycBbKmUDPUxu2Y-22">
          <mxGeometry x="-0.1031" y="-1" relative="1" as="geometry">
            <mxPoint as="offset" />
          </mxGeometry>
        </mxCell>
        <mxCell id="lbHJMxycBbKmUDPUxu2Y-15" value="&lt;span style=&quot;font-size: 10px;&quot;&gt;BatchNorm 1D&lt;/span&gt;" style="rounded=0;whiteSpace=wrap;html=1;" vertex="1" parent="1">
          <mxGeometry x="40" y="180" width="120" height="20" as="geometry" />
        </mxCell>
        <mxCell id="lbHJMxycBbKmUDPUxu2Y-24" style="edgeStyle=orthogonalEdgeStyle;rounded=0;orthogonalLoop=1;jettySize=auto;html=1;" edge="1" parent="1" source="lbHJMxycBbKmUDPUxu2Y-17" target="lbHJMxycBbKmUDPUxu2Y-11">
          <mxGeometry relative="1" as="geometry" />
        </mxCell>
        <mxCell id="lbHJMxycBbKmUDPUxu2Y-27" value="&lt;span style=&quot;font-size: 8px;&quot;&gt;LeakyReLU&lt;/span&gt;" style="edgeLabel;html=1;align=center;verticalAlign=middle;resizable=0;points=[];" vertex="1" connectable="0" parent="lbHJMxycBbKmUDPUxu2Y-24">
          <mxGeometry x="-0.1031" relative="1" as="geometry">
            <mxPoint as="offset" />
          </mxGeometry>
        </mxCell>
        <mxCell id="lbHJMxycBbKmUDPUxu2Y-17" value="&lt;span style=&quot;font-size: 10px;&quot;&gt;BatchNorm 1D&lt;/span&gt;" style="rounded=0;whiteSpace=wrap;html=1;" vertex="1" parent="1">
          <mxGeometry x="40" y="300" width="120" height="20" as="geometry" />
        </mxCell>
        <mxCell id="lbHJMxycBbKmUDPUxu2Y-30" value="&lt;font style=&quot;font-size: 10px;&quot;&gt;Output: 22 Frequencies&lt;/font&gt;" style="text;html=1;align=center;verticalAlign=middle;resizable=0;points=[];autosize=1;strokeColor=none;fillColor=none;" vertex="1" parent="1">
          <mxGeometry x="35" y="420" width="130" height="30" as="geometry" />
        </mxCell>
        <mxCell id="lbHJMxycBbKmUDPUxu2Y-33" style="edgeStyle=orthogonalEdgeStyle;rounded=0;orthogonalLoop=1;jettySize=auto;html=1;entryX=0.5;entryY=0;entryDx=0;entryDy=0;" edge="1" parent="1" source="lbHJMxycBbKmUDPUxu2Y-32" target="lbHJMxycBbKmUDPUxu2Y-8">
          <mxGeometry relative="1" as="geometry" />
        </mxCell>
        <mxCell id="lbHJMxycBbKmUDPUxu2Y-32" value="&lt;font style=&quot;font-size: 10px;&quot;&gt;Input: 202 Frequencies&lt;/font&gt;" style="text;html=1;align=center;verticalAlign=middle;resizable=0;points=[];autosize=1;strokeColor=none;fillColor=none;" vertex="1" parent="1">
          <mxGeometry x="35" y="-50" width="130" height="30" as="geometry" />
        </mxCell>
      </root>
    </mxGraphModel>
  </diagram>
</mxfile>
